<svg class="icon" viewBox="0 0 1024 1024" version="1.1" 
    xmlns="http://www.w3.org/2000/svg" width="64" height="64">
    <path d="M0 512C0 229.259636 229.259636 0 512 0s512 229.259636 512 512-229.259636 512-512 512S0 794.740364 0 512z m412.322909 232.727273a134.562909 134.562909 0 0 0 69.050182-18.990546c39.796364-23.482182 63.534545-64.744727 63.534545-110.405818V409.134545c0-20.433455 11.403636-39.493818 30.440728-50.920727a72.424727 72.424727 0 0 1 36.794181-10.077091c36.817455 0 66.769455 27.368727 66.769455 60.997818 0 10.333091-2.536727 19.851636-7.68 28.555637-7.749818 14.08-21.783273 24.692364-39.517091 29.882182l-0.488727 0.139636-0.465455 0.186182c-0.698182 0.279273-1.140364 0.279273-1.698909 0.279273-18.455273 0-32.907636 15.127273-32.907636 34.443636s14.452364 34.443636 32.907636 34.443636c6.749091 0 13.893818-1.210182 22.434909-3.84a133.259636 133.259636 0 0 0 75.915637-59.997091A130.141091 130.141091 0 0 0 744.727273 409.134545c0-71.610182-59.694545-129.861818-133.050182-129.861818-24.901818 0-48.709818 6.749091-68.561455 19.456-39.796364 23.505455-63.534545 64.768-63.534545 110.405818v205.684364c0 20.433455-11.426909 39.493818-30.440727 50.920727a72.401455 72.401455 0 0 1-36.817455 10.077091c-37.073455 0-67.234909-27.368727-67.234909-60.997818 0-10.333091 2.56-19.851636 7.633455-28.439273 7.773091-13.730909 21.899636-24.389818 39.77309-30.045091l0.372364-0.116363 0.395636-0.162909c0.674909-0.279273 1.117091-0.279273 1.675637-0.279273 18.455273 0 32.907636-15.127273 32.907636-34.443636s-14.452364-34.443636-32.907636-34.443637c-6.516364 0-12.962909 1.093818-22.434909 3.84a133.259636 133.259636 0 0 0-75.915637 59.997091A130.164364 130.164364 0 0 0 279.272727 614.865455C279.272727 686.452364 338.967273 744.727273 412.322909 744.727273z" fill="#6E80D9" />
</svg>