<svg class="icon" viewBox="0 0 1024 1024" version="1.1" 
    xmlns="http://www.w3.org/2000/svg" width="64" height="64">
    <path d="M512 16.896c-273.408 0-495.104 221.696-495.104 495.104s221.696 495.104 495.104 495.104S1007.104 785.408 1007.104 512s-221.696-495.104-495.104-495.104z m221.184 707.072c0 42.496-30.72 77.312-68.096 77.312H358.4c-37.376 0-68.096-34.304-68.096-77.312V338.432l204.288 77.312h34.304l204.288-77.312v385.536z m-204.288-347.136h-34.304l-204.288-77.312c0-42.496 30.72-77.312 68.096-77.312h306.688c37.376 0 68.096 34.304 68.096 77.312l-204.288 77.312z" fill="#FF0000" />
    <path d="M468.48 489.472c-7.168-7.168-22.016-13.312-30.72-4.096-8.704 9.728-2.048 21.504 3.072 26.624 5.632 5.632 51.2 53.248 51.2 53.248v14.336h-57.856c-8.704 0-16.384 14.848-15.872 23.04s7.168 13.824 15.872 13.824c9.216 0 57.856-0.512 57.856-0.512v40.448h-59.904c-8.704 0-15.872 8.704-16.384 16.896-0.512 8.192 6.656 18.944 16.384 18.944h59.904v19.456c1.024 12.8 9.216 18.432 20.992 18.432 11.264 0 19.456-9.216 19.456-17.92v-20.48h59.392c9.216 0 16.384-9.216 16.384-18.944-0.512-9.728-6.144-16.896-20.48-16.896h-54.272l0.512-39.936h55.296c13.824 0 18.944-7.168 18.944-15.872 0-7.68-7.168-21.504-19.456-21.504h-55.296v-12.8s41.984-41.984 52.736-52.224c10.752-9.728 13.312-17.408 7.168-25.6-7.168-8.192-18.944-7.68-27.648-0.512-9.216 7.68-51.712 46.592-51.712 46.592s-37.888-36.864-45.568-44.544z" fill="#FF0000" />
</svg>