<svg class="icon" viewBox="0 0 1024 1024" version="1.1" 
    xmlns="http://www.w3.org/2000/svg" width="64" height="64">
    <path d="M512 512m-512 0a512 512 0 1 0 1024 0 512 512 0 1 0-1024 0Z" fill="#FFC93F"></path>
    <path d="M332.8 384m-76.8 0a76.8 76.8 0 1 0 153.6 0 76.8 76.8 0 1 0-153.6 0Z" fill="#302C3B"></path>
    <path d="M691.2 384m-76.8 0a76.8 76.8 0 1 0 153.6 0 76.8 76.8 0 1 0-153.6 0Z" fill="#302C3B"></path>
    <path d="M512 536.064a1186.816 1186.816 0 0 1 228.352 19.968A82.432 82.432 0 0 1 802.304 665.6a307.2 307.2 0 0 1-580.608 0 81.92 81.92 0 0 1 51.2-102.4l10.752-3.072a1186.304 1186.304 0 0 1 228.352-24.064z" fill="#302C3B"></path>
    <path d="M512 716.8c102.4 0 153.6 19.968 153.6 29.696 0 56.32-97.28 102.4-153.6 102.4s-153.6-46.08-153.6-102.4c0-9.728 51.2-29.696 153.6-29.696z" fill="#BD4F48"></path>
    <path d="M512 563.2a1335.808 1335.808 0 0 1 237.056 16.384 21.504 21.504 0 0 1 17.408 18.944v5.632a126.464 126.464 0 0 1 0 19.968 9.216 9.216 0 0 1-10.24 8.704A2215.936 2215.936 0 0 0 512 614.4a2218.496 2218.496 0 0 0-244.736 18.944 9.216 9.216 0 0 1-10.24-8.192H256a130.56 130.56 0 0 1 0-19.968v-5.632a21.504 21.504 0 0 1 17.408-18.944A1338.368 1338.368 0 0 1 512 563.2z" fill="#FFFFFF"></path>
</svg>