<svg class="icon" viewBox="0 0 1024 1024" version="1.1" 
    xmlns="http://www.w3.org/2000/svg" width="64" height="64">
    <path d="M512 512m-512 0a512 512 0 1 0 1024 0 512 512 0 1 0-1024 0Z" fill="#3C81F0"></path>
    <path d="M308.5312 570.368l0.432356 2.264178 0.2048-2.264178h-0.637156z m401.772089 0.3072h-0.853333l0.420977 1.649778 0.432356-1.649778zM307.2 572.302222c0 3.037867 1.206044 5.973333 3.299556 8.533334-1.137778-3.106133-2.275556-6.144-3.1744-9.329778-0.056889 0.261689-0.125156 0.477867-0.125156 0.796444z m404.332089 0.056889c0-0.284444-0.125156-0.568889-0.125156-0.841955-0.796444 3.140267-2.1504 6.212267-3.185777 9.329777 2.025244-2.6624 3.299556-5.484089 3.299555-8.487822zM509.383111 674.087822c63.988622 0 116.8384-46.307556 124.791467-106.1888 0.682667-5.142756 1.092267-10.296889 1.092266-15.5648V394.808889C635.266844 327.588978 578.878578 273.066667 509.3376 273.066667c-69.5296 0-125.872356 54.522311-125.872356 121.7536v157.548089c0 5.279289 0.4096 10.387911 1.092267 15.576177 7.998578 59.881244 60.757333 106.143289 124.8256 106.143289z m200.3968-106.302578a26.020978 26.020978 0 0 0-26.089244-24.2688c-14.165333 0-25.508978 10.774756-26.237156 24.2688h-0.182044c-14.574933 73.181867-75.264 127.931733-147.933867 127.931734-72.704 0-133.393067-54.749867-147.922489-127.931734h-0.1024c-0.864711-13.494044-12.196978-24.2688-26.225778-24.2688s-25.372444 10.774756-26.191644 24.2688c0 0.136533-0.045511 0.261689-0.045511 0.489245 0.648533 3.913956 1.467733 7.657244 2.286933 11.491555 18.466133 87.415467 88.200533 154.680889 174.626133 165.239467v73.978311c0 12.777244 10.513067 22.971733 23.574756 22.971734 13.027556 0 23.540622-10.194489 23.540622-22.971734V745.016889c86.368711-10.558578 156.103111-77.732978 174.614756-165.0688 0.785067-3.913956 1.786311-7.793778 2.389333-11.753245 0-0.182044-0.1024-0.261689-0.1024-0.398222z" fill="#FFFFFF"></path>
</svg>