<svg t="1594787015679" class="icon" viewBox="0 0 1024 1024" version="1.1" 
    xmlns="http://www.w3.org/2000/svg" p-id="4303" width="64" height="64">
    <path d="M511.998976 512m-512 0a512 512 0 1 0 1024 0 512 512 0 1 0-1024 0Z" fill="#2C8BEF" p-id="4304"></path>
    <path d="M776.635392 325.558272H562.684928c-7.20384 0-13.623296-4.273152-16.34816-10.88l-0.64-1.55648-24.40192-43.570176c-12.125184-27.29472-39.28064-44.915712-69.252096-44.915712H247.359488c-41.818112 0-75.840512 34.021376-75.840512 75.840512v423.046144c0 41.818112 34.021376 75.840512 75.840512 75.840512h529.276928c41.82016 0 75.843584-34.0224 75.843584-75.840512V401.38752c-0.082944-41.811968-34.106368-75.829248-75.844608-75.829248zM794.318848 421.888v301.63456c0 9.791488-7.932928 17.757184-17.683456 17.757184H247.359488c-9.791488 0-17.75616-7.965696-17.75616-17.757184V300.476416c0-9.791488 7.965696-17.75616 17.75616-17.75616h204.683264c7.20384 0 13.622272 4.273152 16.345088 10.875904l0.641024 1.562624 24.406016 43.567104c12.121088 27.292672 39.274496 44.915712 69.249024 44.915712h213.87776c9.791488 0 17.75616 7.965696 17.75616 17.75616V421.888z" fill="#FFFFFF" p-id="4305"></path>
    <path d="M218.27584 483.111936h588.8v46.08H218.27584z" fill="#FFFFFF" p-id="4306"></path>
</svg>