<svg t="1597138722482" class="icon" viewBox="0 0 1024 1024" version="1.1"
    xmlns="http://www.w3.org/2000/svg" p-id="7025" width="64" height="64">
    <path d="M1024 512c0 282.7264-229.2224 512-512 512S0 794.7264 0 512 229.2224 0 512 0s512 229.2736 512 512" fill="#AF5CEE" p-id="7026"></path>
    <path d="M715.9296 532.5824h-144.2816a39.2192 39.2192 0 0 0-39.0656 39.0656v144.2304c0 21.504 17.6128 39.0656 39.0656 39.0656h144.2816a39.168 39.168 0 0 0 39.0144-39.0656v-144.2304a39.168 39.168 0 0 0-39.0144-39.0656M650.24 257.1264a38.7072 38.7072 0 0 0-27.648 11.4176L538.624 352.5632a39.168 39.168 0 0 0 0 55.1936l84.0704 84.1216a38.912 38.912 0 0 0 27.5968 11.3664 38.912 38.912 0 0 0 27.5968-11.3664l84.0704-84.1216a39.0656 39.0656 0 0 0 0-55.1936l-84.0704-83.968a38.7072 38.7072 0 0 0-27.648-11.4688m-197.888 275.456H308.0704a39.168 39.168 0 0 0-39.0144 39.0656v144.2304c0 21.504 17.5616 39.0656 39.0144 39.0656h144.2816a39.168 39.168 0 0 0 39.0656-39.0656v-144.2304a39.2192 39.2192 0 0 0-39.0656-39.0656m0-263.5264H308.0704a39.1168 39.1168 0 0 0-39.0144 39.0144v144.2816c0 21.504 17.5616 39.0144 39.0144 39.0144h144.2816a39.168 39.168 0 0 0 39.0656-39.0144V308.0704a39.168 39.168 0 0 0-39.0656-39.0144" fill="#FFFFFF" p-id="7027"></path>
</svg>