<svg t="1589339292923" class="icon" viewBox="0 0 1024 1024" version="1.1" 
    xmlns="http://www.w3.org/2000/svg" width="64" height="64">
    <path d="M522.24 518.144m-477.184 0a477.184 477.184 0 1 0 954.368 0 477.184 477.184 0 1 0-954.368 0Z" fill="#C4A053" />
    <path d="M290.816 270.336h196.608c20.48 2.048 14.336 36.864 14.336 59.392v108.544c0 22.528 4.096 51.2-10.24 59.392-10.24 4.096-36.864 2.048-51.2 2.048h-104.448c-24.576 0-57.344 6.144-61.44-14.336V286.72c4.096-8.192 8.192-12.288 16.384-16.384m26.624 45.056v141.312h141.312v-143.36l-141.312 2.048c0-2.048 0 0 0 0m237.568-45.056h196.608c8.192 2.048 14.336 8.192 14.336 18.432v192.512c-2.048 8.192-6.144 14.336-14.336 16.384-12.288 4.096-34.816 0-49.152 0h-100.352c-14.336 0-36.864 4.096-51.2 0-18.432-6.144-12.288-38.912-12.288-63.488v-100.352c2.048-26.624-4.096-59.392 16.384-63.488m28.672 45.056v141.312h141.312v-143.36l-141.312 2.048c0-2.048 0 0 0 0m-200.704 40.96c20.48-4.096 34.816 10.24 34.816 26.624 0 24.576-24.576 36.864-43.008 26.624-20.48-10.24-18.432-47.104 8.192-53.248m264.192 0c47.104-8.192 45.056 63.488 0 57.344-28.672-4.096-28.672-51.2 0-57.344m-159.744 407.552h-194.56c-8.192-2.048-14.336-8.192-16.384-16.384v-196.608c2.048-6.144 6.144-12.288 12.288-14.336 12.288-4.096 34.816 0 49.152 0h100.352c14.336 0 36.864-4.096 51.2 0 18.432 6.144 12.288 38.912 12.288 61.44v104.448c2.048 26.624 8.192 59.392-14.336 61.44m-169.984-182.272v141.312h141.312v-143.36l-141.312 2.048c0-2.048 0-2.048 0 0m450.56-26.624v55.296c-2.048 18.432 0 38.912 0 59.392h-141.312v-32.768c-12.288-2.048-28.672 0-43.008 0-2.048 40.96 0 86.016 0 129.024h-26.624c-22.528-4.096-16.384-36.864-16.384-63.488v-100.352c0-14.336-4.096-38.912 0-51.2 4.096-14.336 24.576-12.288 43.008-12.288h96.256v86.016h45.056v-86.016c22.528-4.096 40.96-4.096 43.008 16.384m-380.928 65.536c20.48-2.048 38.912 18.432 30.72 38.912-12.288 30.72-65.536 18.432-55.296-20.48 2.048-8.192 10.24-16.384 24.576-18.432m286.72 143.36h-47.104v-51.2h47.104v51.2m94.208-51.2v32.768c-2.048 10.24-8.192 14.336-16.384 18.432h-32.768v-51.2h49.152" fill="#FFFFFF" />
</svg>