<svg t="1589339449143" class="icon" viewBox="0 0 1024 1024" version="1.1" 
    xmlns="http://www.w3.org/2000/svg" width="64" height="64">
    <path d="M512 0C229.205333 0 0 229.205333 0 512s229.205333 512 512 512 512-229.205333 512-512S794.794667 0 512 0z" fill="#F57123" />
    <path d="M663.703704 689.550222A31.099259 31.099259 0 0 1 632.775111 720.592593H410.187852A31.099259 31.099259 0 0 1 379.259259 689.550222V360.296296h284.444445v329.253926zM436.148148 308.242963c0-2.711704 2.958222-4.835556 6.712889-4.835556h157.240889c3.754667 0 6.712889 2.123852 6.712889 4.835556V322.37037h-170.666667v-14.127407z m322.635852 18.678518h-118.518519v-18.450962c0-23.779556-19.721481-42.989037-43.52-42.989038h-150.016c-24.064 0-43.52 19.474963-43.52 42.989038v18.450962h-119.049481a18.507852 18.507852 0 0 0-18.678519 18.450963c0 10.126222 8.438519 18.469926 18.697482 18.469926h56.054518v326.656c0 37.432889 30.72 68.020148 68.854519 68.020149h224.768c37.888 0 68.873481-30.340741 68.873481-68.020149v-326.921481h56.054519c10.505481 0 18.697481-8.343704 18.697481-18.450963 0-10.107259-8.457481-18.204444-18.697481-18.204445zM530.962963 663.703704c10.657185 0 18.962963-8.097185 18.962963-17.92v-191.715556c0-10.05037-8.571259-17.92-18.962963-17.92s-18.962963 8.097185-18.962963 17.92v191.715556c0 10.05037 8.305778 17.92 18.962963 17.92z m-94.814815 0c10.657185 0 18.962963-8.097185 18.962963-17.92v-191.715556c0-10.05037-8.571259-17.92-18.962963-17.92s-18.962963 8.097185-18.962963 17.92v191.715556c0.265481 10.05037 8.836741 17.92 18.962963 17.92z m170.666667 0c10.657185 0 18.962963-8.097185 18.962963-17.92v-191.715556c0-10.05037-8.571259-17.92-18.962963-17.92-10.657185 0-18.962963 8.097185-18.962963 17.92v191.715556c0 10.05037 8.571259 17.92 18.962963 17.92z" fill="#FFFFFF" />
</svg>
