<svg class="icon" viewBox="0 0 1024 1024" version="1.1" 
    xmlns="http://www.w3.org/2000/svg" width="64" height="64">
    <path d="M32.020 512.762c0 264.676 214.562 479.238 479.238 479.238s479.238-214.562 479.238-479.238c0-264.676-214.562-479.238-479.238-479.238-264.676 0-479.238 214.562-479.238 479.238z" fill="#95B31E" />
    <path d="M879.802 760.365v-437.977h-690.076v437.977h345.038z" />
    <path d="M166.221 298.883h345.037v437.977h-345.037z" fill="#3F8C80" />
    <path d="M511.258 298.883h345.038v437.977h-345.038z" fill="#367F75" />
    <path d="M166.221 348.242h345.037v95.127h-345.037z" fill="#545454" />
    <path d="M511.258 348.242h345.038v95.127h-345.038z" fill="#434142" />
    <path d="M241.107 648.67l29.489 29.489-29.489 29.489-29.49-29.49z" fill="#EBEBED" />
    <path d="M670.042 511.098h77.888v53.299h-77.887zM684.906 628.706h137.715v78.946h-137.715z" fill="#FFFFFF" />
    <path d="M684.906 628.706h137.715v19.118h-137.715z" fill="#012D80" />
    <path d="M684.906 688.532h137.715v19.119h-137.715z" fill="#E2B249" />
    <path d="M214.897 579.955h416.767v14.676h-416.767z" fill="#FFFFFF" />
    <path d="M214.897 479.741h296.362v84.656h-296.362z" fill="#FDE5BC" />
    <path d="M511.258 479.741h158.784v84.656h-158.784z" fill="#F0D6AD" />
</svg>