<svg t="1594797769466" class="icon" viewBox="0 0 1024 1024" version="1.1"
    xmlns="http://www.w3.org/2000/svg" p-id="8966" width="64" height="64">
    <path d="M512 512m-512 0a512 512 0 1 0 1024 0 512 512 0 1 0-1024 0Z" fill="#0F0F0F" opacity=".5" p-id="24982"></path>
    <path d="M793.1392 702.165333H335.121067V257.220267C335.121067 242.4064 323.456 230.4 309.060267 230.4 294.656 230.4 282.990933 242.4064 282.990933 257.220267v53.640533H230.8608C216.4736 310.8608 204.8 322.8672 204.8 337.681067c0 14.813867 11.6736 26.820267 26.0608 26.820266h52.138667v364.484267c0 14.813867 11.665067 26.820267 26.0608 26.820267h388.352v53.640533c0 14.813867 11.665067 26.820267 26.0608 26.820267 14.395733 0 26.069333-12.0064 26.069333-26.820267v-53.640533h43.5968c14.3872 0 26.0608-12.0064 26.0608-26.820267 0-14.813867-11.6736-26.820267-26.0608-26.820267z m-399.7696-338.346666h304.699733v278.4256c0 15.018667 11.8272 27.1872 26.427734 27.1872S750.933333 657.262933 750.933333 642.244267V336.622933c0-15.018667-11.835733-27.195733-26.436266-27.195733H393.3696c-9.4464 0-18.176 5.179733-22.894933 13.5936a27.869867 27.869867 0 0 0 0 27.195733 26.308267 26.308267 0 0 0 22.894933 13.5936z" fill="#FFFFFF" p-id="24983"></path>
    <path d="M575.8976 510.062933l-57.088 90.743467a17.066667 17.066667 0 0 1-24.106667 4.974933l-51.319466-35.234133a34.133333 34.133333 0 0 0-51.328 16.2816L366.933333 654.660267h295.688534l-40.490667-138.154667a25.6 25.6 0 0 0-46.2336-6.442667z" fill="#FFFFFF" p-id="24984"></path>
    <path d="M392.533333 457.685333a31.018667 29.866667 90 1 0 59.733334 0 31.018667 29.866667 90 1 0-59.733334 0Z" fill="#FFFFFF" p-id="24985"></path>
</svg>
