<svg t="1594801883566" class="icon" viewBox="0 0 1072 1024" version="1.1" 
    xmlns="http://www.w3.org/2000/svg" p-id="24347" width="64" height="64">
    <path d="M83.504762 350.061714A500.711619 500.711619 0 0 1 554.642286 18.846476c276.431238 0 500.540952 224.085333 500.540952 500.516572s-224.109714 500.516571-500.540952 500.516571A500.638476 500.638476 0 0 1 68.803048 640.097524a32.914286 32.914286 0 1 1 63.878095-15.823238A434.834286 434.834286 0 0 0 554.666667 954.075429c240.103619 0 434.712381-194.633143 434.712381-434.712381 0-240.079238-194.608762-434.712381-434.712381-434.712381A434.883048 434.883048 0 0 0 140.678095 386.389333l51.882667-24.576a32.914286 32.914286 0 0 1 28.16 59.489524l-114.102857 54.00381a32.914286 32.914286 0 0 1-43.76381-15.60381l-57.782857-121.270857a32.914286 32.914286 0 1 1 59.440762-28.281905l19.017143 39.911619z" fill="#67c23a" p-id="24348"></path>
    <path d="M701.001143 663.088762a32.914286 32.914286 0 0 0-13.482667-2.876952H353.426286a5.36381 5.36381 0 0 1-5.436953-5.534477V378.61181c0-2.974476 2.56-5.534476 5.315048-5.534477h381.074286c2.974476 0 5.290667 2.340571 5.290666 5.607619v246.881524l0.390096 5.022476 8.289523 53.784381-47.347809-21.284571z m40.594286 90.38019c43.203048 19.407238 82.407619-10.386286 75.190857-57.124571l-11.312762-73.289143V378.63619a71.119238 71.119238 0 0 0-71.119238-71.387428H353.28a71.41181 71.41181 0 0 0-71.119238 71.338667v276.065523a71.192381 71.192381 0 0 0 71.265524 71.338667H680.472381l61.123048 27.452952z" fill="#e6a23c" p-id="24349"></path>
    <path d="M390.460952 435.712l306.736762 0 0 65.80419-306.736762 0 0-65.80419Z" fill="#e6a23c" p-id="24350"></path>
    <path d="M390.460952 543.768381l306.736762 0 0 65.80419-306.736762 0 0-65.80419Z" fill="#e6a23c" p-id="24351"></path>
</svg>