<svg class="icon" viewBox="0 0 1024 1024" version="1.1" 
    xmlns="http://www.w3.org/2000/svg" width="64" height="64">
    <path d="M511.944147 511.944147m-511.944147 0a511.944147 511.944147 0 1 0 1023.888295 0 511.944147 511.944147 0 1 0-1023.888295 0Z" fill="#3396FA" />
    <path d="M646.995527 280.491328a32.394458 32.394458 0 0 1-4.133086 0h-67.693247a57.416385 57.416385 0 0 0-19.213265 3.016035 30.160358 30.160358 0 0 0-20.44202 22.341006 53.283299 53.283299 0 0 0-1.452166 12.622668v119.636086a63.783572 63.783572 0 0 0 3.686266 24.239992 30.495473 30.495473 0 0 0 22.341006 18.766445 46.469292 46.469292 0 0 0 11.170503 1.34046h129.354423a76.741355 76.741355 0 0 0 14.745064-1.34046 31.612523 31.612523 0 0 0 26.697502-26.697502c0-1.34046 0-3.127741 1.675575-3.686266V313.556016a1.11705 1.11705 0 0 1 0-0.89364c-0.89364-2.904331-1.005345-5.808662-2.01069-8.712992a33.511509 33.511509 0 0 0-25.357042-23.011236 39.76699 39.76699 0 0 0-11.170503-1.228756c-0.781935 0-1.78728 0.558525-2.345805 0h-52.836479c0 1.56387-1.56387 1.228755-2.569215 1.340461z m58.533436 24.128286a23.904876 23.904876 0 0 1 7.037416 1.228755 8.712992 8.712992 0 0 1 6.367187 8.936402V447.937166c0 6.702302-5.138431 11.170503-12.510963 11.170503H571.482928a23.122941 23.122941 0 0 1-7.484237-1.563871c-5.026726-1.78728-5.696956-6.255482-5.808662-11.170502v-129.577834a12.175848 12.175848 0 0 1 4.133087-10.053453 13.851424 13.851424 0 0 1 9.271517-2.569215h134.046035z" fill="#FFFFFF" />
    <path d="M646.437002 279.597687h-70.262463a72.719974 72.719974 0 0 0-16.420639 1.787281 32.729573 32.729573 0 0 0-17.7611 9.941747 37.197775 37.197775 0 0 0-8.824697 25.245337v123.992582a70.374168 70.374168 0 0 0 1.675575 16.197229 33.511509 33.511509 0 0 0 9.941748 18.096215 36.192429 36.192429 0 0 0 24.575106 8.936402h132.37046a61.326061 61.326061 0 0 0 16.420639-1.78728 31.835933 31.835933 0 0 0 23.793171-21.223956c1.005345-3.127741 1.11705-6.478892 2.234101-9.606632-1.898985 0.558525-1.452165 2.345806-1.675576 3.686266a31.500818 31.500818 0 0 1-26.697502 26.697502 81.768081 81.768081 0 0 1-14.745064 1.34046H571.371223a46.469292 46.469292 0 0 1-11.170503-1.34046 30.607178 30.607178 0 0 1-22.341006-18.766445 63.671866 63.671866 0 0 1-3.686266-24.239992V318.917858a53.283299 53.283299 0 0 1 1.452166-12.622669 30.160358 30.160358 0 0 1 20.44202-22.341006 58.980255 58.980255 0 0 1 19.213265-3.016035h67.693247a32.394458 32.394458 0 0 0 4.133086 0c1.005345 0 2.345806 0 2.457511-1.452166-0.67023 1.228755-1.898985 0-2.904331 0z m-368.626595 172.249155a37.197775 37.197775 0 0 0 8.489582 20.21861 33.511509 33.511509 0 0 0 25.468747 11.170503h134.046034a55.182284 55.182284 0 0 0 16.64405-2.345806 31.612523 31.612523 0 0 0 23.234646-31.500818V317.689102a44.682012 44.682012 0 0 0-1.452166-11.170503 33.511509 33.511509 0 0 0-28.149667-25.133631 50.602378 50.602378 0 0 0-7.372532-0.67023c-1.228755 0-2.680921 0-3.127741-1.452166h-52.836478c-0.781935 1.228755-2.010691 0-2.904331 0h-73.166794a46.692702 46.692702 0 0 0-25.021927 6.367187 32.171048 32.171048 0 0 0-14.074833 19.54838c0 1.56387 0 3.351151-1.11705 4.915021v138.290826c1.452165 0.781935 0.781935 2.345806 0.781935 3.462856z m23.458056-137.062071a10.165158 10.165158 0 0 1 8.601287-9.718337 38.761645 38.761645 0 0 1 7.819352-0.558525h129.912949a25.468747 25.468747 0 0 1 7.372532 1.228755 8.154467 8.154467 0 0 1 6.367186 8.712992v134.046035a9.048107 9.048107 0 0 1-6.925711 9.383222 22.341006 22.341006 0 0 1-7.372532 1.228756H313.891131a12.846078 12.846078 0 0 1-10.276862-3.574561 8.712992 8.712992 0 0 1-2.457511-6.032072q-0.111705-67.469837 0-134.716265z" fill="#FFFFFF" />
    <path d="M277.251882 450.171266a34.851969 34.851969 0 0 0 3.797971 14.856769 32.059343 32.059343 0 0 0 29.713537 18.543035h132.59387a69.815643 69.815643 0 0 0 16.420639-1.78728 31.947638 31.947638 0 0 0 26.027272-32.282754V318.135922a47.809752 47.809752 0 0 0 0-8.712992 34.963674 34.963674 0 0 0-14.409949-23.122941 38.761645 38.761645 0 0 0-22.341006-6.814007c-1.34046 0-2.904331 0.67023-4.133086 0 0 1.78728 2.010691 1.452165 3.127741 1.452166a60.544126 60.544126 0 0 1 7.372532 0.67023 33.511509 33.511509 0 0 1 28.149667 25.133631 44.682012 44.682012 0 0 1 1.452166 11.170503v131.700229a31.724228 31.724228 0 0 1-23.234646 31.500819 55.182284 55.182284 0 0 1-16.64405 2.345805h-134.046034a33.511509 33.511509 0 0 1-25.468747-11.170503 37.421185 37.421185 0 0 1-8.489582-20.21861c0-1.11705 0-2.680921-1.563871-3.127741 1.675575 0 1.675575 0.781935 1.675576 1.228755z m43.229846 282.055198a27.702847 27.702847 0 0 1 3.909676 0h122.205302a58.086615 58.086615 0 0 0 14.633358-1.78728 31.612523 31.612523 0 0 0 24.575107-31.612523V566.344497a34.293444 34.293444 0 0 0-31.835934-35.410495c-6.814007-0.67023-13.628014-1.005345-20.44202-1.228755-20.44202 0-40.995746 0-61.326061 0.781935s-39.208465 0-58.64514 0a42.336206 42.336206 0 0 0-19.436675 4.803317 29.601833 29.601833 0 0 0-15.303589 19.77179c0 1.675575 0 3.909676-2.2341 4.803316v138.849351c1.228755 3.239446 1.34046 6.814007 2.345805 10.165157a31.612523 31.612523 0 0 0 23.569761 23.122941 39.655285 39.655285 0 0 0 11.840733 1.228756c0.781935 0 2.010691-0.67023 2.569216 0h1.228755c-0.22341-1.005345 0.89364-0.89364 1.787281-1.005346z m-6.814007-24.128286a11.170503 11.170503 0 0 1-12.175848-12.175848V565.339151a10.165158 10.165158 0 0 1 11.170503-11.170503c44.682012-1.452165 88.470383 0 132.705574 0a23.346351 23.346351 0 0 1 11.170503 1.787281 8.712992 8.712992 0 0 1 5.026726 8.154467v133.152394c0 7.149122-4.579906 10.500273-11.170502 11.170503a92.044944 92.044944 0 0 1-15.080179 0H313.220901z" fill="#FFFFFF" />
    <path d="M320.928548 733.120105h120.753136a82.214901 82.214901 0 0 0 16.64405-1.228756 35.075379 35.075379 0 0 0 19.32497-10.165157 31.947638 31.947638 0 0 0 8.601287-22.341006V567.014727a42.671321 42.671321 0 0 0-1.228755-11.170503 34.405149 34.405149 0 0 0-21.782481-24.463401 69.368823 69.368823 0 0 0-24.351696-3.127741h-41.107451c-11.170503 0.67023-22.341006 0-33.511509 0.558525H315.008182a51.607723 51.607723 0 0 0-11.170503 1.228755 32.729573 32.729573 0 0 0-24.128287 18.543035c-1.56387 3.351151-1.675575 7.149122-3.12774 10.500273 2.234101-0.89364 1.78728-3.127741 2.2341-4.803317a29.713538 29.713538 0 0 1 15.303589-19.77179 42.447911 42.447911 0 0 1 19.436675-4.803316h58.64514c19.54838 0 40.884041-1.228755 61.326061-0.781935 6.814007 0 13.628014 0 20.44202 1.228755a34.293444 34.293444 0 0 1 31.835934 35.410494v132.482165a31.612523 31.612523 0 0 1-24.575107 31.612523 58.086615 58.086615 0 0 1-14.633358 1.78728H319.923203c-1.005345 0-2.122396 0-2.234101 1.452166 0.89364-1.11705 2.234101 0 3.239446 0zM291.326715 286.076579a47.139522 47.139522 0 0 1 25.021927-6.367187h73.166794c1.005345 0 2.122396 0.67023 2.904331 0a5.920367 5.920367 0 0 1-3.239446 0H309.42293a34.293444 34.293444 0 0 0-27.591142 13.963129 30.160358 30.160358 0 0 0-5.808662 16.755754c1.11705-1.452165 0.67023-3.239446 1.117051-4.915021a32.394458 32.394458 0 0 1 14.186538-19.436675z m413.308607-6.478892a39.9904 39.9904 0 0 1 11.170503 1.228756 33.511509 33.511509 0 0 1 25.357042 23.011236c1.005345 2.904331 1.11705 5.920367 2.01069 8.712992a34.070034 34.070034 0 0 0-31.277408-32.841279 55.852514 55.852514 0 0 1-9.941747 0c0.89364 0.558525 1.898985-0.111705 2.68092-0.111705z m-390.967601 453.522418a39.655285 39.655285 0 0 1-11.840733-1.228756 31.612523 31.612523 0 0 1-23.569761-23.122941c-1.005345-3.351151-1.11705-6.925712-2.345806-10.165157 0.67023 3.127741 0 6.367187 1.228756 9.606632a32.506163 32.506163 0 0 0 28.819897 24.910222 59.203665 59.203665 0 0 1 10.276863 0c-0.335115-0.67023-1.452165-0.111705-2.345806 0z" fill="#FFFFFF" />
    <path d="M567.684957 604.324206a11.170503 11.170503 0 0 0-12.064143 11.840733v101.986692a11.170503 11.170503 0 0 0 12.399258 11.840733 11.170503 11.170503 0 0 0 12.510963-11.170503V616.61176a11.170503 11.170503 0 0 0-12.734373-11.170503z m150.131559 0a11.170503 11.170503 0 0 0-13.851424 11.170503v103.550562a9.494927 9.494927 0 0 0 0 2.904331 12.846078 12.846078 0 0 0 13.963129 8.266172c6.814007-1.56387 11.170503-4.244791 11.170503-12.734373v-98.858951c-0.67023-8.712992-3.351151-12.622668-11.729028-14.186539z m-54.958874 35.5222a12.510963 12.510963 0 0 0-13.069489-8.936403c-7.372532 1.452165-11.170503 3.909676-11.170503 12.399258v73.278499a11.170503 11.170503 0 0 0 10.388568 13.181194 11.840733 11.840733 0 0 0 14.521654-11.170503v-75.95942a12.622668 12.622668 0 0 0 0-2.569215z m-16.42064-108.353878a11.170503 11.170503 0 0 0-8.266172 11.729028v52.501363c0 7.819352 2.345806 12.510963 11.170503 14.074834a11.840733 11.840733 0 0 0 14.186539-11.170503v-28.149667-27.256027c-0.89364-11.058798-9.718338-13.292898-17.649395-11.505618z m-70.597578 1.56387a14.745064 14.745064 0 0 0-9.159812-2.010691 11.170503 11.170503 0 0 0-11.170503 11.170503V573.605323a9.941748 9.941748 0 0 0 2.904331 7.260827 13.628014 13.628014 0 0 0 11.170502 3.909676 11.170503 11.170503 0 0 0 11.170503-11.170503v-31.500818a10.276863 10.276863 0 0 0-5.473546-8.936402z m152.142249 5.026726a11.952438 11.952438 0 0 0-11.170502-7.149122 11.729028 11.729028 0 0 0-13.404604 13.516309v27.367732a9.494927 9.494927 0 0 0 0 2.569216 12.287553 12.287553 0 0 0 14.186539 8.266172 11.170503 11.170503 0 0 0 10.500272-11.170503v-28.149667a13.851424 13.851424 0 0 0-1.005345-4.803317z m-312.774081-176.940766a11.170503 11.170503 0 0 0-9.159812-8.154467h-45.128832a15.080179 15.080179 0 0 0-8.154467 2.122396 10.388568 10.388568 0 0 0-4.579906 6.367187v46.245882c0.558525 0 0 0.67023 0 1.005345a12.399258 12.399258 0 0 0 2.680921 6.478891 11.170503 11.170503 0 0 0 8.266172 3.462856h43.341551a16.755754 16.755754 0 0 0 5.361842-0.781935 10.276863 10.276863 0 0 0 7.484236-10.165157v-42.671322a12.175848 12.175848 0 0 0-0.335115-3.686265z m256.921567-4.579906a11.170503 11.170503 0 0 0-9.159812-8.154467h-45.128832a15.080179 15.080179 0 0 0-8.154467 2.122396 10.388568 10.388568 0 0 0-4.579906 6.367186v46.245882c0.558525 0 0 0.67023 0 1.005346a12.399258 12.399258 0 0 0 2.68092 6.478891 11.170503 11.170503 0 0 0 8.266172 3.462856h43.341552a16.755754 16.755754 0 0 0 5.361841-0.781935 10.276863 10.276863 0 0 0 7.484237-10.165158v-42.671321a10.276863 10.276863 0 0 0 0-3.574561zM414.649067 609.909458a11.170503 11.170503 0 0 0-9.159812-8.154467h-45.128832a15.080179 15.080179 0 0 0-8.154467 2.122395 10.388568 10.388568 0 0 0-4.579906 6.367187v46.245882c0.558525 0 0 0.67023 0 1.005345a12.399258 12.399258 0 0 0 2.680921 6.478892 11.170503 11.170503 0 0 0 8.266172 3.462856h43.341551a16.755754 16.755754 0 0 0 5.361841-0.781935 10.276863 10.276863 0 0 0 7.484237-10.165158v-42.671321a12.175848 12.175848 0 0 0 0-3.574561z" fill="#FFFFFF" />
</svg>
