<svg class="icon" viewBox="0 0 1024 1024" version="1.1"
    xmlns="http://www.w3.org/2000/svg" width="64" height="64">
    <path d="M511.887441 511.887385m-511.887385 0a511.887385 511.887385 0 1 0 1023.77477 0 511.887385 511.887385 0 1 0-1023.77477 0Z" fill="#3FA9F5" p-id="25830"></path>
    <path d="M510.863666 490.900002h2.04755c53.236288 0 96.234828-42.99854 97.258603-96.234828V362.928156c-0.511887-53.748175-44.534202-96.746716-98.282378-96.234829-53.748175-0.511887-97.77049 42.486653-98.282378 96.234829v32.248905c1.023775 52.724401 44.022315 95.722941 97.258603 95.722941z m190.422107 14.332847c33.784567 0.511887 62.450261-26.106257 62.962149-59.890824v-19.963608c-1.023775-33.784567-29.177581-60.914599-62.962149-59.890824-33.784567-1.023775-62.450261 26.106257-62.962148 59.890824v19.963608c1.023775 33.784567 29.177581 60.402711 62.962148 59.890824z m-378.284777 0c33.784567 1.023775 62.450261-26.106257 62.962148-59.890824v-19.963608c-1.023775-33.784567-29.177581-60.914599-62.962148-59.890824-33.784567-1.023775-62.450261 26.106257-62.962148 59.890824v19.963608c0.511887 33.784567 28.665694 60.402711 62.962148 59.890824-0.511887 0-0.511887 0 0 0z m-91.115954 60.914599c-17.916058 9.72586-28.665694 29.177581-28.153807 49.653076v24.570594c-0.511887 14.844734 8.190198 28.665694 22.523045 34.296455 20.475495 5.118874 40.950991 8.702086 61.938374 10.749635v-43.510427c-1.535662-34.808342 11.261522-69.104797 35.320229-94.699167h-0.511887c-31.737018 0-62.450261 6.654536-91.115954 18.939834z m561.028573 0C763.736034 553.350263 733.022791 547.207614 701.285773 547.207614h-0.511887c23.54682 25.594369 36.344004 59.890824 35.32023 94.699167V685.417208c20.987383-2.04755 41.462878-5.630761 61.426486-10.749635 13.820959-5.630761 23.034932-19.451721 22.523045-34.296455v-24.570594c1.023775-20.475495-9.72586-39.415329-27.130032-49.653076z m-141.280918-2.559437c-43.510428-20.475495-91.115954-30.713243-139.745256-30.713243-48.117414 0-95.722941 10.749635-139.233369 30.713243-27.641919 16.380396-44.022315 46.581752-42.99854 78.830657v39.415329c-1.023775 23.54682 12.285297 45.557977 34.296455 55.283837 48.117414 13.309072 98.282378 19.963608 147.935454 19.963608 50.164964 0 99.81804-6.654536 147.935454-19.963608 22.011158-9.213973 35.32023-31.22513 34.296455-55.283837v-39.415329c1.535662-31.737018-14.844734-61.938374-42.486653-78.830657z" fill="#FFFFFF" p-id="25831"></path>
</svg>