<svg class="icon" viewBox="0 0 1024 1024" version="1.1" 
    xmlns="http://www.w3.org/2000/svg" width="64" height="64">
    <path d="M678.464 40.128s-66.336-26.88-166.528-26.88c-100.16 0-166.528 30.784-166.528 30.784L678.56 383.04l-0.096-342.88z" fill="#FB5453"></path>
    <path d="M867.296 162.624c-73.536-69.728-144.64-94.56-144.64-94.56l-2.432 465.6 249.856-236.736c0 0.096-29.12-64.544-102.784-134.304z" fill="#6468F1"></path>
    <path d="M980.48 341.92l-343.552 328.64h347.52s27.264-65.44 27.264-164.352c-0.096-98.816-31.232-164.288-31.232-164.288z" fill="#5283F0"></path>
    <path d="M731.232 958.144s67.456-27.136 140.16-95.712c72.704-68.608 98.688-134.784 98.688-134.784l-485.856-2.304 247.04 232.8z" fill="#00B2FE"></path>
    <path d="M345.504 986.08s66.368 26.848 166.528 26.848c100.32 0 166.528-30.784 166.528-30.784L345.44 643.2l0.064 342.88z" fill="#66D020"></path>
    <path d="M170.56 863.552c73.568 69.76 144.64 94.592 144.64 94.592l2.464-465.6-249.856 236.704c0.096-0.096 29.216 64.576 102.752 134.304z" fill="#9AD122"></path>
    <path d="M39.52 341.92S12.288 407.36 12.288 506.24s31.136 164.32 31.136 164.32l343.648-328.544H39.552v-0.096z" fill="#FFC71A"></path>
    <path d="M306.656 68.064s-67.488 27.104-140.16 95.68C93.76 232.384 67.808 298.56 67.808 298.56l485.824 2.304-246.976-232.768z" fill="#FF7612"></path>
</svg>